Normalized EMG Linear Envelopes
nRows=115
nColumns=4

endheader
time	 med_gas_r	  soleus_r	 tib_ant_r	
3.86492	  0.011352	  0.012117	  0.067252	
3.93649	  0.011401	  0.012097	  0.064127	
4.00806	  0.011375	  0.012257	  0.062048	
4.07964	  0.011456	  0.012442	  0.062056	
4.15121	  0.011783	  0.012507	  0.061351	
4.22278	  0.011724	  0.012316	  0.059999	
4.29435	  0.011459	  0.011924	  0.060040	
4.36593	  0.011106	  0.011464	  0.058015	
4.4375	  0.010845	  0.011149	  0.052467	
4.50907	  0.011060	  0.011153	  0.044638	
4.58065	  0.011517	  0.011487	  0.038020	
4.65222	  0.012312	  0.011856	  0.030837	
4.72379	  0.013333	  0.012196	  0.022764	
4.79536	  0.014112	  0.013568	  0.015739	
4.86694	  0.015034	  0.017435	  0.011166	
4.93851	  0.016900	  0.024135	  0.009128	
5.01008	  0.018632	  0.030465	  0.008341	
5.08165	  0.018658	  0.030837	  0.008415	
5.15323	  0.017087	  0.025608	  0.010832	
5.2248	  0.014405	  0.018485	  0.017385	
5.29637	  0.012375	  0.013461	  0.028245	
5.36794	  0.011241	  0.011156	  0.036623	
5.43952	  0.010569	  0.010577	  0.032133	
5.51109	  0.010525	  0.010662	  0.022467	
5.58266	  0.011275	  0.010991	  0.015807	
5.65423	  0.012250	  0.011391	  0.013136	
5.72581	  0.012766	  0.011649	  0.012847	
5.79738	  0.012990	  0.012024	  0.013581	
5.86895	  0.013075	  0.012334	  0.013213	
5.94052	  0.012938	  0.012168	  0.011432	
6.0121	  0.012334	  0.010718	  0.009440	
6.08367	  0.010502	  0.007555	  0.007288	
6.15524	  0.007656	  0.004837	  0.005704	
6.22681	  0.005443	  0.007673	  0.005582	
6.29839	  0.008973	  0.024189	  0.007964	
6.36996	  0.028358	  0.063963	  0.014028	
6.44153	  0.074631	  0.128480	  0.024113	
6.5131	  0.150194	  0.201587	  0.035697	
6.58468	  0.238753	  0.261206	  0.044927	
6.65625	  0.309062	  0.294929	  0.050736	
6.72782	  0.363411	  0.313120	  0.053689	
6.7994	  0.400946	  0.339974	  0.055820	
6.87097	  0.418422	  0.372286	  0.059385	
6.94254	  0.399821	  0.406967	  0.063221	
7.01411	  0.374297	  0.445688	  0.066155	
7.08569	  0.365035	  0.482343	  0.066687	
7.15726	  0.371084	  0.513708	  0.065414	
7.22883	  0.387137	  0.545726	  0.065057	
7.3004	  0.430844	  0.594368	  0.067547	
7.37198	  0.488226	  0.664671	  0.071702	
7.44355	  0.546960	  0.718990	  0.075581	
7.51512	  0.585461	  0.737313	  0.074906	
7.58669	  0.604394	  0.731151	  0.071012	
7.65827	  0.609312	  0.712925	  0.069051	
7.72984	  0.605478	  0.695314	  0.070146	
7.80141	  0.591589	  0.684560	  0.072641	
7.87298	  0.575331	  0.680332	  0.073298	
7.94456	  0.581953	  0.684983	  0.072612	
8.01613	  0.577444	  0.679136	  0.071445	
8.0877	  0.565181	  0.664319	  0.070075	
8.15927	  0.560123	  0.650875	  0.068160	
8.23085	  0.558627	  0.655016	  0.066600	
8.30242	  0.547062	  0.663458	  0.065488	
8.37399	  0.530440	  0.680429	  0.064723	
8.44556	  0.511006	  0.687994	  0.064489	
8.51714	  0.499294	  0.672949	  0.063819	
8.58871	  0.482664	  0.649956	  0.062937	
8.66028	  0.454902	  0.619360	  0.060305	
8.73185	  0.427402	  0.573447	  0.055294	
8.80343	  0.398951	  0.530577	  0.050941	
8.875	  0.373990	  0.509564	  0.048354	
8.94657	  0.357405	  0.507241	  0.047366	
9.01815	  0.347600	  0.509967	  0.047943	
9.08972	  0.340481	  0.504800	  0.050104	
9.16129	  0.331502	  0.511106	  0.053997	
9.23286	  0.323019	  0.515483	  0.056895	
9.30444	  0.321585	  0.507137	  0.055253	
9.37601	  0.317904	  0.504831	  0.052323	
9.44758	  0.313498	  0.513122	  0.051277	
9.51915	  0.320580	  0.527761	  0.052004	
9.59073	  0.335082	  0.537266	  0.054286	
9.6623	  0.353797	  0.539619	  0.056863	
9.73387	  0.374767	  0.545998	  0.058765	
9.80544	  0.395135	  0.557703	  0.058833	
9.87702	  0.404759	  0.561035	  0.056284	
9.94859	  0.385179	  0.548939	  0.054852	
10.0202	  0.346173	  0.539460	  0.054523	
10.0917	  0.315892	  0.540547	  0.053626	
10.1633	  0.298720	  0.536180	  0.054244	
10.2349	  0.287838	  0.514578	  0.055245	
10.3065	  0.286949	  0.478872	  0.054716	
10.378	  0.290982	  0.452264	  0.053600	
10.4496	  0.294876	  0.437523	  0.052703	
10.5212	  0.298865	  0.430088	  0.052921	
10.5927	  0.294224	  0.436843	  0.052145	
10.6643	  0.281147	  0.445120	  0.051543	
10.7359	  0.265073	  0.451295	  0.051115	
10.8075	  0.251154	  0.459565	  0.049607	
10.879	  0.240537	  0.458946	  0.047653	
10.9506	  0.230697	  0.423799	  0.046740	
11.0222	  0.222933	  0.369274	  0.045526	
11.0937	  0.215136	  0.333335	  0.043715	
11.1653	  0.210346	  0.327042	  0.041945	
11.2369	  0.207104	  0.335942	  0.040133	
11.3085	  0.202017	  0.336523	  0.037568	
11.38	  0.187950	  0.316625	  0.035151	
11.4516	  0.164754	  0.282204	  0.034122	
11.5232	  0.142607	  0.244165	  0.033676	
11.5948	  0.132895	  0.219855	  0.032353	
11.6663	  0.132894	  0.208152	  0.029607	
11.7379	  0.130667	  0.191006	  0.026454	
11.8095	  0.119726	  0.171138	  0.023912	
11.881	  0.100613	  0.150154	  0.021917	
11.9526	  0.079297	  0.130188	  0.019975	
12.0242	  0.057784	  0.111072	  0.018151	
